<svg xmlns="http://www.w3.org/2000/svg" width="128" height="128" viewBox="0 0 128 128"><rect width="128" height="128" rx="24" fill="#f3eee2"/><ellipse cx="64" cy="110" rx="44" ry="7" fill="#ded9ca"/><path d="M20 65 Q22 105 64 106 Q105 105 108 65Z" fill="#477d7d"/><ellipse cx="64" cy="65" rx="44" ry="10" fill="#c9dad0"/><path d="M32 68 Q18 35 40 45 Q62 55 49 62" fill="none" stroke="#e1b759" stroke-width="5" stroke-linecap="round"/><path d="M40 68 Q26 35 47 45 Q67 55 55 62" fill="none" stroke="#e1b759" stroke-width="5" stroke-linecap="round"/><path d="M48 68 Q34 35 54 45 Q72 55 61 62" fill="none" stroke="#e1b759" stroke-width="5" stroke-linecap="round"/><path d="M56 68 Q42 35 61 45 Q77 55 67 62" fill="none" stroke="#e1b759" stroke-width="5" stroke-linecap="round"/><path d="M64 68 Q50 35 68 45 Q82 55 73 62" fill="none" stroke="#e1b759" stroke-width="5" stroke-linecap="round"/><path d="M72 68 Q58 35 75 45 Q87 55 79 62" fill="none" stroke="#e1b759" stroke-width="5" stroke-linecap="round"/><path d="M80 68 Q66 35 82 45 Q92 55 85 62" fill="none" stroke="#e1b759" stroke-width="5" stroke-linecap="round"/><path d="M88 68 Q74 35 89 45 Q97 55 91 62" fill="none" stroke="#e1b759" stroke-width="5" stroke-linecap="round"/></svg>
